<svg xmlns="http://www.w3.org/2000/svg" xmlns:xlink="http://www.w3.org/1999/xlink" viewBox="0 0 278.218 278.218"><defs><style>.a{fill:#4d4d4d;}.b{fill:url(#a);}.c{clip-path:url(#b);}.d{fill:url(#c);}.e{fill:#fafcfa;}.f{fill:#b9bcc1;}</style><linearGradient id="a" x1="0.5" y1="0.6" x2="0.194" y2="0.1" gradientUnits="objectBoundingBox"><stop offset="0" stop-color="#61a9e9"/><stop offset="1" stop-color="#225480"/></linearGradient><clipPath id="b"><circle class="a" cx="139.109" cy="139.109" r="139.109" transform="translate(0)"/></clipPath><linearGradient id="c" y1="0.49" x2="0.566" y2="0.052" gradientUnits="objectBoundingBox"><stop offset="0" stop-color="#225480"/><stop offset="1" stop-color="#61a9e9"/></linearGradient></defs><g transform="translate(484.94 9.277)"><circle class="b" cx="139.109" cy="139.109" r="139.109" transform="translate(-484.94 -9.277)"/><g class="c" transform="translate(-484.94 -9.277)"><circle class="d" cx="191.014" cy="191.014" r="191.014" transform="translate(65.037 74.006)"/></g><path class="e" d="M-475.318,177a15.26,15.26,0,0,1,.22-5.533c1.941-10.594,17.083-18.991,43.86-24.308,4.372-.868,5.57-1.49,5.57-2.9,0-1.022,1.564-2.761,3.633-4.05l3.637-2.259-8.386-.278c-5.841-.194-8.54-.666-8.88-1.553-.385-1,2.395-1.392,13.008-1.813l13.495-.535,8.356-7.093c31.3-26.575,53.392-67.963,59.42-111.34.96-6.9,4.585-17.343,6.028-17.376.377-.011,2.344,2.362,4.361,5.273s4.2,5.31,4.848,5.328c3.669.117,4.852,21.181,1.831,32.669-4.376,16.68-10.115,30.234-20.848,49.243-2.706,4.8-4.914,9.155-4.907,9.69s1.956-1.212,4.321-3.878,4.321-4.354,4.343-3.754-6.28,10.572-14,22.159S-369.24,136.093-369,136.492s2.574,1.007,5.175,1.355c14.022,1.857,37.283,9.891,49.829,17.211,9.272,5.4,21.064,16.867,21.064,20.478,0,3.01-.022,3.021-3.369,1.494-1.879-.853-2.772-.861-3.607-.026s-2.373.392-6.2-1.794c-3.332-1.908-5.31-2.549-5.735-1.864-.447.721-1.373.575-2.948-.454-2.929-1.923-3.7-1.9-2.937.07.538,1.406.33,1.392-1.963-.106a14.435,14.435,0,0,0-5.1-1.988c-6.376-.769-12.165-1.714-23.854-3.9-18.4-3.442-38.242-6.2-49.565-6.888l-9.924-.608-13.857,6.4c-18.665,8.628-28.465,11.433-42.047,12.044-8.782.4-10.851.227-11.29-.912Zm20.35-6.108c9.961-2.347,23.668-10.169,17.827-10.169-5.09,0-21.591,3.992-27.282,6.592-6.031,2.761-6.2,2.93-3.874,3.9C-464.936,172.625-462,172.556-454.968,170.9Z" transform="translate(40.25 30.85)"/><path class="f" d="M-475.318,67.293a15.26,15.26,0,0,1,.22-5.533c1.941-10.594,17.083-18.991,43.86-24.308,4.372-.868,5.57-1.49,5.57-2.9,0-.326,1.344-.681,3.113-1.055.7-.146,5.658.432,6.43.278.864-.172-2.454-1.084-1.648-1.263,2.38-.527,4.167-1.084,3.325-1.644a31.86,31.86,0,0,0-3.589-1.523,57.886,57.886,0,0,0-8.752-1.381c-5.837-.194-8.536-.666-8.877-1.553-.384-1,2.336-1.776,12.92-2.333a270.3,270.3,0,0,1,59.358,3.534c13.916,2.516,36.851,10.411,49.4,17.728,9.268,5.405,21.06,16.871,21.06,20.482,0,3.01-.022,3.021-3.369,1.494-1.879-.853-2.772-.861-3.607-.026s-2.373.392-6.2-1.794c-3.332-1.908-5.31-2.549-5.735-1.864-.447.721-1.373.575-2.948-.454-2.929-1.923-3.7-1.9-2.937.07.538,1.406.33,1.392-1.963-.106a14.435,14.435,0,0,0-5.1-1.988c-6.376-.769-12.165-1.714-23.854-3.9-18.4-3.442-38.242-6.2-49.565-6.888C-445.432,47.13-477.182,59.57-475.318,67.293Z" transform="translate(40.25 140.562)"/></g></svg>