<svg xmlns:xlink="http://www.w3.org/1999/xlink" viewBox="0 0 52.917 52.917">
  <defs>
    <linearGradient id="b">
      <stop offset="0" stop-color="#1272a4"/>
      <stop offset="1" stop-color="#4dc3ec"/>
    </linearGradient>
    <linearGradient id="a">
      <stop offset="0" stop-color="#1e66a4"/>
      <stop offset="1" stop-color="#0089ac"/>
    </linearGradient>
    <clipPath id="d">
      <circle cx="-658.246" cy="24.668" r="37.987" fill="#4d4d4d" stroke-linecap="round" stroke-opacity=".983" stroke-width=".227"/>
    </clipPath>
    <linearGradient id="e" x1="-678.473" x2="-619.457" y1="58.025" y2="12.322" gradientUnits="userSpaceOnUse" xlink:href="#a"/>
    <linearGradient id="c" x1="-658.246" x2="-681.491" y1="32.228" y2="-5.759" gradientUnits="userSpaceOnUse" xlink:href="#b"/>
  </defs>
  <g transform="matrix(.69652 0 0 .69652 484.938 9.277)">
    <circle cx="-658.246" cy="24.668" r="37.987" fill="url(#c)"/>
    <circle cx="-626.312" cy="59.051" r="52.161" fill="url(#e)" clip-path="url(#d)"/>
    <path fill="#fafcfa" d="M-682.614 45.974c-.08-.209-.053-.889.06-1.511.53-2.893 4.665-5.186 11.977-6.638 1.194-.237 1.521-.407 1.521-.791 0-.279.427-.754.992-1.106l.993-.617-2.29-.076c-1.595-.053-2.332-.182-2.425-.424-.105-.274.654-.38 3.552-.495l3.685-.146 2.282-1.937c8.548-7.257 14.58-18.559 16.226-30.404.262-1.884 1.252-4.736 1.646-4.745.103-.003.64.645 1.191 1.44.552.795 1.148 1.45 1.324 1.455 1.002.032 1.325 5.784.5 8.921-1.195 4.555-2.762 8.256-5.693 13.447-.739 1.31-1.342 2.5-1.34 2.646.004.145.534-.331 1.18-1.059.647-.727 1.18-1.189 1.186-1.025.006.164-1.715 2.887-3.823 6.051-2.107 3.164-3.777 5.842-3.71 5.951.068.11.703.275 1.413.37 3.829.507 10.181 2.701 13.607 4.7 2.532 1.475 5.752 4.606 5.752 5.592 0 .822-.006.825-.92.408-.513-.233-.757-.235-.985-.007-.228.229-.648.107-1.692-.49-.91-.521-1.45-.696-1.566-.509-.122.197-.375.157-.805-.124-.8-.525-1.01-.52-.802.019.147.384.09.38-.536-.029-.385-.252-1.012-.497-1.393-.543-1.741-.21-3.322-.468-6.514-1.065-5.025-.94-10.443-1.692-13.535-1.881l-2.71-.166-3.784 1.748c-5.097 2.356-7.773 3.122-11.482 3.289-2.398.108-2.963.062-3.083-.249zm5.557-1.668c2.72-.641 6.463-2.777 4.868-2.777-1.39 0-5.896 1.09-7.45 1.8-1.647.754-1.692.8-1.058 1.065.918.384 1.72.365 3.64-.088z"/>
    <path fill="#b9bcc1" d="M-682.614 45.974c-.08-.209-.053-.889.06-1.511.53-2.893 4.665-5.186 11.977-6.638 1.194-.237 1.521-.407 1.521-.791 0-.089.367-.186.85-.288.19-.04 1.545.118 1.756.076.236-.047-.67-.296-.45-.345.65-.144 1.138-.296.908-.449 0 0-.568-.284-.98-.416-.727-.233-2.39-.377-2.39-.377-1.594-.053-2.331-.182-2.424-.424-.105-.274.638-.485 3.528-.637 5.474-.287 11.415.097 16.209.965 3.8.687 10.063 2.843 13.49 4.841 2.531 1.476 5.751 4.607 5.751 5.593 0 .822-.006.825-.92.408-.513-.233-.757-.235-.985-.007-.228.229-.648.107-1.692-.49-.91-.521-1.45-.696-1.566-.509-.122.197-.375.157-.805-.124-.8-.525-1.01-.52-.802.019.147.384.09.38-.536-.029-.385-.252-1.012-.497-1.393-.543-1.741-.21-3.322-.468-6.514-1.065-5.025-.94-10.443-1.692-13.535-1.881-12.897-.884-21.567 2.513-21.058 4.622z"/>
  </g>
</svg>
